<svg xmlns="http://www.w3.org/2000/svg" viewBox="0 14.039999961853027 63.22999954223633 43.40999984741211" data-asc="1.02099609375" width="63.22999954223633" height="43.40999984741211"><defs/><g fill="#3ca0b9"><g transform="translate(0, 0)"><path d="M3.86 37.28Q3.93 36.47 4.27 35.75Q4.61 35.03 5.16 34.51Q5.71 33.98 6.41 33.67Q7.10 33.35 7.89 33.35L15.80 33.35L15.80 18.19L0 18.19Q0.10 17.33 0.48 16.58Q0.85 15.82 1.43 15.26Q2.00 14.70 2.73 14.37Q3.47 14.04 4.27 14.04L21.51 14.04L21.51 33.35L26.49 33.35L26.51 37.28L21.51 37.28L21.51 51.32Q21.51 52.59 21.12 53.71Q20.73 54.83 20.07 55.66Q19.41 56.49 18.55 56.97Q17.70 57.45 16.77 57.45L15.80 57.45L15.80 37.28L3.86 37.28L3.86 37.28ZM34.28 37.28L28.83 37.28Q28.91 36.43 29.28 35.67Q29.66 34.91 30.24 34.34Q30.81 33.76 31.54 33.44Q32.28 33.11 33.11 33.11L34.28 33.11L34.28 14.04L50.83 14.04Q51.81 14.04 52.71 14.51Q53.61 14.99 54.31 15.83Q55.00 16.67 55.42 17.81Q55.83 18.95 55.83 20.24L55.83 29.35Q55.83 31.13 55.03 32.62Q54.22 34.11 52.69 35.01Q53.76 35.40 54.54 36.11Q55.32 36.82 55.83 37.67Q56.35 38.53 56.59 39.45Q56.84 40.38 56.84 41.21L56.81 46.85L63.23 46.85Q63.13 47.73 62.76 48.49Q62.38 49.24 61.80 49.82Q61.23 50.39 60.50 50.72Q59.77 51.05 58.96 51.05L55.59 51.05Q54.64 51.05 53.80 50.56Q52.95 50.07 52.32 49.24Q51.68 48.41 51.32 47.29Q50.95 46.17 50.95 44.90L50.95 37.28L40.06 37.28L40.04 51.05L34.28 51.05L34.28 37.28M50.05 33.11L50.05 18.21L40.06 18.21L40.06 33.11L50.05 33.11Z"/></g></g></svg>